<?xml version="1.0" encoding="UTF-8"?><svg id="Capa_2" xmlns="http://www.w3.org/2000/svg" viewBox="0 0 220.32 220.27"><defs><style>.cls-1{fill:#7bd235;}.cls-2{fill:#fbb034;}.cls-3{fill:#cf0a2c;}.cls-4{fill:#45aaf2;}</style></defs><g id="Capa_1-2"><g><path class="cls-2" d="M30.16,114.76H6.23c-3.68,0-6.57,3.19-6.19,6.85,5.36,51.83,46.63,93.16,98.43,98.63,3.67,.39,6.86-2.5,6.86-6.19v-23.94c0-3.09-2.27-5.73-5.34-6.15-33.03-4.53-59.23-30.78-63.68-63.84-.41-3.07-3.05-5.36-6.15-5.36Z"/><path class="cls-4" d="M190.04,104.68h23.97c3.72,0,6.6-3.25,6.18-6.94C214.46,46.49,173.61,5.71,122.34,.08c-3.69-.41-6.93,2.47-6.93,6.18V30.22c0,3.08,2.26,5.71,5.31,6.14,32.6,4.64,58.46,30.45,63.18,63.02,.44,3.04,3.06,5.29,6.14,5.29Z"/><path class="cls-3" d="M115.41,190.05v23.96c0,3.7,3.21,6.59,6.88,6.19,51.6-5.65,92.65-46.89,98-98.58,.38-3.66-2.51-6.85-6.19-6.85h-23.93c-3.1,0-5.74,2.28-6.15,5.36-4.43,32.93-30.45,59.11-63.3,63.78-3.05,.43-5.31,3.06-5.31,6.14Z"/><path class="cls-1" d="M105.32,30.16V6.22c0-3.71-3.22-6.58-6.91-6.19C46.94,5.49,5.88,46.35,.13,97.73c-.41,3.7,2.46,6.95,6.18,6.95H30.28c3.08,0,5.7-2.25,6.14-5.29,4.74-32.7,30.78-58.58,63.56-63.08,3.07-.42,5.34-3.05,5.34-6.15Z"/></g></g></svg>