<svg width="60" height="60" viewBox="0 0 60 60" fill="none" xmlns="http://www.w3.org/2000/svg">
<g clip-path="url(#clip0_679_10304)">
<path d="M3.75 10.605C7.06875 9.21748 11.8275 7.72123 16.455 7.25623C21.4425 6.75373 25.6725 7.49248 28.125 10.0762V46.6237C24.6187 44.6362 20.175 44.3625 16.0763 44.775C11.6513 45.225 7.18875 46.5037 3.75 47.8162V10.605ZM31.875 10.0762C34.3275 7.49248 38.5575 6.75373 43.545 7.25623C48.1725 7.72123 52.9313 9.21748 56.25 10.605V47.8162C52.8075 46.5037 48.3488 45.2212 43.9238 44.7787C39.8213 44.3625 35.3813 44.6325 31.875 46.6237V10.0762ZM30 6.68623C26.3062 3.50998 20.9513 3.03748 16.0763 3.52498C10.3988 4.09873 4.66875 6.04498 1.09875 7.66873C0.771184 7.81771 0.493407 8.0578 0.298579 8.36035C0.10375 8.6629 9.96428e-05 9.01513 0 9.37498L0 50.625C8.68575e-05 50.9387 0.0788893 51.2474 0.229189 51.5228C0.379489 51.7981 0.596481 52.0314 0.860291 52.2012C1.1241 52.3709 1.42629 52.4718 1.73919 52.4945C2.05208 52.5173 2.36568 52.4611 2.65125 52.3312C5.95875 50.8312 11.2875 49.0275 16.4513 48.5062C21.735 47.9737 26.1638 48.8325 28.5375 51.795C28.7132 52.014 28.9358 52.1907 29.1889 52.3121C29.4421 52.4336 29.7192 52.4966 30 52.4966C30.2808 52.4966 30.5579 52.4336 30.8111 52.3121C31.0642 52.1907 31.2868 52.014 31.4625 51.795C33.8363 48.8325 38.265 47.9737 43.545 48.5062C48.7125 49.0275 54.045 50.8312 57.3488 52.3312C57.6343 52.4611 57.9479 52.5173 58.2608 52.4945C58.5737 52.4718 58.8759 52.3709 59.1397 52.2012C59.4035 52.0314 59.6205 51.7981 59.7708 51.5228C59.9211 51.2474 59.9999 50.9387 60 50.625V9.37498C59.9999 9.01513 59.8962 8.6629 59.7014 8.36035C59.5066 8.0578 59.2288 7.81771 58.9012 7.66873C55.3312 6.04498 49.6013 4.09873 43.9238 3.52498C39.0488 3.03373 33.6938 3.50998 30 6.68623Z" fill="#6574CD"/>
</g>
<defs>
<clipPath id="clip0_679_10304">
<rect width="60" height="60" fill="white"/>
</clipPath>
</defs>
</svg>
