<svg width="60" height="60" viewBox="0 0 60 60" fill="none" xmlns="http://www.w3.org/2000/svg">
<path d="M41.25 7.5C41.25 6.50544 41.6451 5.55161 42.3484 4.84835C43.0516 4.14509 44.0054 3.75 45 3.75H52.5C53.4946 3.75 54.4484 4.14509 55.1516 4.84835C55.8549 5.55161 56.25 6.50544 56.25 7.5V52.5H58.125C58.6223 52.5 59.0992 52.6975 59.4508 53.0492C59.8025 53.4008 60 53.8777 60 54.375C60 54.8723 59.8025 55.3492 59.4508 55.7008C59.0992 56.0525 58.6223 56.25 58.125 56.25H1.875C1.37772 56.25 0.900806 56.0525 0.549175 55.7008C0.197544 55.3492 0 54.8723 0 54.375C0 53.8777 0.197544 53.4008 0.549175 53.0492C0.900806 52.6975 1.37772 52.5 1.875 52.5H3.75V41.25C3.75 40.2554 4.14509 39.3016 4.84835 38.5984C5.55161 37.8951 6.50544 37.5 7.5 37.5H15C15.9946 37.5 16.9484 37.8951 17.6516 38.5984C18.3549 39.3016 18.75 40.2554 18.75 41.25V52.5H22.5V26.25C22.5 25.2554 22.8951 24.3016 23.5984 23.5984C24.3016 22.8951 25.2554 22.5 26.25 22.5H33.75C34.7446 22.5 35.6984 22.8951 36.4016 23.5984C37.1049 24.3016 37.5 25.2554 37.5 26.25V52.5H41.25V7.5ZM45 52.5H52.5V7.5H45V52.5ZM33.75 52.5V26.25H26.25V52.5H33.75ZM15 52.5V41.25H7.5V52.5H15Z" fill="#6574CD"/>
</svg>
