<svg width="60" height="60" viewBox="0 0 60 60" fill="none" xmlns="http://www.w3.org/2000/svg">
<g clip-path="url(#clip0_679_10306)">
<path d="M13.125 0C13.6223 0 14.0992 0.197544 14.4508 0.549175C14.8025 0.900806 15 1.37772 15 1.875V3.75H45V1.875C45 1.37772 45.1975 0.900806 45.5492 0.549175C45.9008 0.197544 46.3777 0 46.875 0C47.3723 0 47.8492 0.197544 48.2008 0.549175C48.5525 0.900806 48.75 1.37772 48.75 1.875V3.75H52.5C54.4891 3.75 56.3968 4.54018 57.8033 5.9467C59.2098 7.35322 60 9.26088 60 11.25V52.5C60 54.4891 59.2098 56.3968 57.8033 57.8033C56.3968 59.2098 54.4891 60 52.5 60H7.5C5.51088 60 3.60322 59.2098 2.1967 57.8033C0.790176 56.3968 0 54.4891 0 52.5V11.25C0 9.26088 0.790176 7.35322 2.1967 5.9467C3.60322 4.54018 5.51088 3.75 7.5 3.75H11.25V1.875C11.25 1.37772 11.4475 0.900806 11.7992 0.549175C12.1508 0.197544 12.6277 0 13.125 0ZM7.5 7.5C6.50544 7.5 5.55161 7.89509 4.84835 8.59835C4.14509 9.30161 3.75 10.2554 3.75 11.25V15H56.25V11.25C56.25 10.2554 55.8549 9.30161 55.1516 8.59835C54.4484 7.89509 53.4946 7.5 52.5 7.5H7.5ZM56.25 18.75H3.75V52.5C3.75 53.4946 4.14509 54.4484 4.84835 55.1516C5.55161 55.8549 6.50544 56.25 7.5 56.25H52.5C53.4946 56.25 54.4484 55.8549 55.1516 55.1516C55.8549 54.4484 56.25 53.4946 56.25 52.5V18.75Z" fill="#6574CD"/>
<path d="M41.25 28.125C41.25 27.6277 41.4475 27.1508 41.7992 26.7992C42.1508 26.4475 42.6277 26.25 43.125 26.25H46.875C47.3723 26.25 47.8492 26.4475 48.2008 26.7992C48.5525 27.1508 48.75 27.6277 48.75 28.125V31.875C48.75 32.3723 48.5525 32.8492 48.2008 33.2008C47.8492 33.5525 47.3723 33.75 46.875 33.75H43.125C42.6277 33.75 42.1508 33.5525 41.7992 33.2008C41.4475 32.8492 41.25 32.3723 41.25 31.875V28.125ZM30 28.125C30 27.6277 30.1975 27.1508 30.5492 26.7992C30.9008 26.4475 31.3777 26.25 31.875 26.25H35.625C36.1223 26.25 36.5992 26.4475 36.9508 26.7992C37.3025 27.1508 37.5 27.6277 37.5 28.125V31.875C37.5 32.3723 37.3025 32.8492 36.9508 33.2008C36.5992 33.5525 36.1223 33.75 35.625 33.75H31.875C31.3777 33.75 30.9008 33.5525 30.5492 33.2008C30.1975 32.8492 30 32.3723 30 31.875V28.125ZM22.5 39.375C22.5 38.8777 22.6975 38.4008 23.0492 38.0492C23.4008 37.6975 23.8777 37.5 24.375 37.5H28.125C28.6223 37.5 29.0992 37.6975 29.4508 38.0492C29.8025 38.4008 30 38.8777 30 39.375V43.125C30 43.6223 29.8025 44.0992 29.4508 44.4508C29.0992 44.8025 28.6223 45 28.125 45H24.375C23.8777 45 23.4008 44.8025 23.0492 44.4508C22.6975 44.0992 22.5 43.6223 22.5 43.125V39.375ZM11.25 39.375C11.25 38.8777 11.4475 38.4008 11.7992 38.0492C12.1508 37.6975 12.6277 37.5 13.125 37.5H16.875C17.3723 37.5 17.8492 37.6975 18.2008 38.0492C18.5525 38.4008 18.75 38.8777 18.75 39.375V43.125C18.75 43.6223 18.5525 44.0992 18.2008 44.4508C17.8492 44.8025 17.3723 45 16.875 45H13.125C12.6277 45 12.1508 44.8025 11.7992 44.4508C11.4475 44.0992 11.25 43.6223 11.25 43.125V39.375Z" fill="#6574CD"/>
</g>
<defs>
<clipPath id="clip0_679_10306">
<rect width="60" height="60" fill="white"/>
</clipPath>
</defs>
</svg>
