<svg width="60" height="60" viewBox="0 0 60 60" fill="none" xmlns="http://www.w3.org/2000/svg">
<path d="M60 30C60 30 48.75 9.375 30 9.375C11.25 9.375 0 30 0 30C0 30 11.25 50.625 30 50.625C48.75 50.625 60 30 60 30ZM4.39875 30C6.20918 27.2422 8.29487 24.6753 10.6237 22.3387C15.45 17.505 22.05 13.125 30 13.125C37.95 13.125 44.5463 17.505 49.38 22.3387C51.7089 24.6753 53.7946 27.2422 55.605 30C55.39 30.325 55.1463 30.685 54.8738 31.08C53.6175 32.88 51.7613 35.28 49.38 37.6613C44.5463 42.495 37.9462 46.875 30 46.875C22.0538 46.875 15.4538 42.495 10.62 37.6613C8.29112 35.3247 6.20918 32.7578 4.39875 30Z" fill="#6574CD"/>
<path d="M30 20.625C27.5136 20.625 25.129 21.6127 23.3709 23.3709C21.6127 25.129 20.625 27.5136 20.625 30C20.625 32.4864 21.6127 34.871 23.3709 36.6291C25.129 38.3873 27.5136 39.375 30 39.375C32.4864 39.375 34.871 38.3873 36.6291 36.6291C38.3873 34.871 39.375 32.4864 39.375 30C39.375 27.5136 38.3873 25.129 36.6291 23.3709C34.871 21.6127 32.4864 20.625 30 20.625ZM16.875 30C16.875 26.519 18.2578 23.1806 20.7192 20.7192C23.1806 18.2578 26.519 16.875 30 16.875C33.481 16.875 36.8194 18.2578 39.2808 20.7192C41.7422 23.1806 43.125 26.519 43.125 30C43.125 33.481 41.7422 36.8194 39.2808 39.2808C36.8194 41.7422 33.481 43.125 30 43.125C26.519 43.125 23.1806 41.7422 20.7192 39.2808C18.2578 36.8194 16.875 33.481 16.875 30Z" fill="#6574CD"/>
</svg>
