<svg width="60" height="60" viewBox="0 0 60 60" fill="none" xmlns="http://www.w3.org/2000/svg">
<path d="M1.87503 11.25L2.02503 14.5125C1.03857 15.9521 0.58503 17.6907 0.742531 19.4288L3.13128 45.6787C3.30062 47.5422 4.16037 49.275 5.54177 50.5371C6.92317 51.7991 8.72642 52.4993 10.5975 52.5H33.75V48.75H10.5975C9.66201 48.7491 8.76059 48.3986 8.07025 47.7672C7.3799 47.1358 6.95048 46.2692 6.86628 45.3375L4.47753 19.0875C4.43065 18.5687 4.49237 18.0458 4.65877 17.5522C4.82517 17.0585 5.09259 16.605 5.44398 16.2204C5.79538 15.8358 6.22304 15.5287 6.69971 15.3186C7.17638 15.1085 7.6916 15 8.21253 15H51.7875C52.3085 15 52.8237 15.1085 53.3003 15.3186C53.777 15.5287 54.2047 15.8358 54.5561 16.2204C54.9075 16.605 55.1749 17.0585 55.3413 17.5522C55.5077 18.0458 55.5694 18.5687 55.5225 19.0875L54.525 30H58.2938L59.2538 19.4288C59.3481 18.3911 59.2251 17.3453 58.8928 16.3578C58.5605 15.3703 58.0261 14.4629 57.3236 13.6935C56.6212 12.924 55.7661 12.3093 54.813 11.8886C53.8598 11.4679 52.8294 11.2504 51.7875 11.25H36.855C34.8661 11.2496 32.9587 10.4591 31.5525 9.0525L28.4475 5.9475C27.0413 4.54088 25.134 3.75042 23.145 3.75H9.37503C7.38591 3.75 5.47825 4.54018 4.07173 5.9467C2.66521 7.35322 1.87503 9.26088 1.87503 11.25ZM23.145 7.5C24.1395 7.50021 25.0932 7.89544 25.7963 8.59875L28.4475 11.25H8.21253C7.30753 11.255 6.45378 11.405 5.65128 11.7L5.62503 11.175C5.64467 10.1935 6.0484 9.25882 6.74955 8.5717C7.45069 7.88458 8.39333 7.4998 9.37503 7.5H23.145Z" fill="#6574CD"/>
<path d="M50.625 33.75C51.1223 33.75 51.5992 33.9475 51.9508 34.2992C52.3025 34.6508 52.5 35.1277 52.5 35.625V41.25H58.125C58.6223 41.25 59.0992 41.4475 59.4508 41.7992C59.8025 42.1508 60 42.6277 60 43.125C60 43.6223 59.8025 44.0992 59.4508 44.4508C59.0992 44.8025 58.6223 45 58.125 45H52.5V50.625C52.5 51.1223 52.3025 51.5992 51.9508 51.9508C51.5992 52.3025 51.1223 52.5 50.625 52.5C50.1277 52.5 49.6508 52.3025 49.2992 51.9508C48.9475 51.5992 48.75 51.1223 48.75 50.625V45H43.125C42.6277 45 42.1508 44.8025 41.7992 44.4508C41.4475 44.0992 41.25 43.6223 41.25 43.125C41.25 42.6277 41.4475 42.1508 41.7992 41.7992C42.1508 41.4475 42.6277 41.25 43.125 41.25H48.75V35.625C48.75 35.1277 48.9475 34.6508 49.2992 34.2992C49.6508 33.9475 50.1277 33.75 50.625 33.75Z" fill="#6574CD"/>
</svg>
