<svg width="60" height="60" viewBox="0 0 60 60" fill="none" xmlns="http://www.w3.org/2000/svg">
<path d="M31.875 22.5C31.875 22.0027 31.6775 21.5258 31.3258 21.1742C30.9742 20.8225 30.4973 20.625 30 20.625C29.5027 20.625 29.0258 20.8225 28.6742 21.1742C28.3225 21.5258 28.125 22.0027 28.125 22.5V28.125H22.5C22.0027 28.125 21.5258 28.3225 21.1742 28.6742C20.8225 29.0258 20.625 29.5027 20.625 30C20.625 30.4973 20.8225 30.9742 21.1742 31.3258C21.5258 31.6775 22.0027 31.875 22.5 31.875H28.125V37.5C28.125 37.9973 28.3225 38.4742 28.6742 38.8258C29.0258 39.1775 29.5027 39.375 30 39.375C30.4973 39.375 30.9742 39.1775 31.3258 38.8258C31.6775 38.4742 31.875 37.9973 31.875 37.5V31.875H37.5C37.9973 31.875 38.4742 31.6775 38.8258 31.3258C39.1775 30.9742 39.375 30.4973 39.375 30C39.375 29.5027 39.1775 29.0258 38.8258 28.6742C38.4742 28.3225 37.9973 28.125 37.5 28.125H31.875V22.5Z" fill="#6574CD"/>
<path d="M7.5 7.5C7.5 5.51088 8.29018 3.60322 9.6967 2.1967C11.1032 0.790176 13.0109 0 15 0L45 0C46.9891 0 48.8968 0.790176 50.3033 2.1967C51.7098 3.60322 52.5 5.51088 52.5 7.5V52.5C52.5 54.4891 51.7098 56.3968 50.3033 57.8033C48.8968 59.2098 46.9891 60 45 60H15C13.0109 60 11.1032 59.2098 9.6967 57.8033C8.29018 56.3968 7.5 54.4891 7.5 52.5V7.5ZM45 3.75H15C14.0054 3.75 13.0516 4.14509 12.3483 4.84835C11.6451 5.55161 11.25 6.50544 11.25 7.5V52.5C11.25 53.4946 11.6451 54.4484 12.3483 55.1516C13.0516 55.8549 14.0054 56.25 15 56.25H45C45.9946 56.25 46.9484 55.8549 47.6516 55.1516C48.3549 54.4484 48.75 53.4946 48.75 52.5V7.5C48.75 6.50544 48.3549 5.55161 47.6516 4.84835C46.9484 4.14509 45.9946 3.75 45 3.75Z" fill="#6574CD"/>
</svg>
