<svg width="60" height="60" viewBox="0 0 60 60" fill="none" xmlns="http://www.w3.org/2000/svg">
<path d="M20.625 26.25C20.1277 26.25 19.6508 26.4475 19.2992 26.7992C18.9475 27.1508 18.75 27.6277 18.75 28.125C18.75 28.6223 18.9475 29.0992 19.2992 29.4508C19.6508 29.8025 20.1277 30 20.625 30H39.375C39.8723 30 40.3492 29.8025 40.7008 29.4508C41.0525 29.0992 41.25 28.6223 41.25 28.125C41.25 27.6277 41.0525 27.1508 40.7008 26.7992C40.3492 26.4475 39.8723 26.25 39.375 26.25H20.625ZM18.75 35.625C18.75 35.1277 18.9475 34.6508 19.2992 34.2992C19.6508 33.9475 20.1277 33.75 20.625 33.75H39.375C39.8723 33.75 40.3492 33.9475 40.7008 34.2992C41.0525 34.6508 41.25 35.1277 41.25 35.625C41.25 36.1223 41.0525 36.5992 40.7008 36.9508C40.3492 37.3025 39.8723 37.5 39.375 37.5H20.625C20.1277 37.5 19.6508 37.3025 19.2992 36.9508C18.9475 36.5992 18.75 36.1223 18.75 35.625ZM18.75 43.125C18.75 42.6277 18.9475 42.1508 19.2992 41.7992C19.6508 41.4475 20.1277 41.25 20.625 41.25H28.125C28.6223 41.25 29.0992 41.4475 29.4508 41.7992C29.8025 42.1508 30 42.6277 30 43.125C30 43.6223 29.8025 44.0992 29.4508 44.4508C29.0992 44.8025 28.6223 45 28.125 45H20.625C20.1277 45 19.6508 44.8025 19.2992 44.4508C18.9475 44.0992 18.75 43.6223 18.75 43.125Z" fill="#6574CD"/>
<path d="M35.625 0H15C13.0109 0 11.1032 0.790176 9.6967 2.1967C8.29018 3.60322 7.5 5.51088 7.5 7.5V52.5C7.5 54.4891 8.29018 56.3968 9.6967 57.8033C11.1032 59.2098 13.0109 60 15 60H45C46.9891 60 48.8968 59.2098 50.3033 57.8033C51.7098 56.3968 52.5 54.4891 52.5 52.5V16.875L35.625 0ZM35.625 3.75V11.25C35.625 12.7418 36.2176 14.1726 37.2725 15.2275C38.3274 16.2824 39.7582 16.875 41.25 16.875H48.75V52.5C48.75 53.4946 48.3549 54.4484 47.6516 55.1516C46.9484 55.8549 45.9946 56.25 45 56.25H15C14.0054 56.25 13.0516 55.8549 12.3483 55.1516C11.6451 54.4484 11.25 53.4946 11.25 52.5V7.5C11.25 6.50544 11.6451 5.55161 12.3483 4.84835C13.0516 4.14509 14.0054 3.75 15 3.75H35.625Z" fill="#6574CD"/>
</svg>
