<svg width="60" height="60" viewBox="0 0 60 60" fill="none" xmlns="http://www.w3.org/2000/svg">
<path d="M31.3275 4.29749C31.1533 4.12288 30.9464 3.98435 30.7186 3.88982C30.4908 3.7953 30.2466 3.74664 30 3.74664C29.7534 3.74664 29.5092 3.7953 29.2814 3.88982C29.0536 3.98435 28.8467 4.12288 28.6725 4.29749L6.1725 26.7975C5.9985 26.9719 5.86058 27.179 5.76663 27.4068C5.67269 27.6345 5.62456 27.8786 5.625 28.125V54.375C5.625 54.8723 5.82255 55.3492 6.17418 55.7008C6.52581 56.0525 7.00272 56.25 7.5 56.25H24.375C24.8723 56.25 25.3492 56.0525 25.7008 55.7008C26.0525 55.3492 26.25 54.8723 26.25 54.375V39.375H33.75V54.375C33.75 54.8723 33.9475 55.3492 34.2992 55.7008C34.6508 56.0525 35.1277 56.25 35.625 56.25H52.5C52.9973 56.25 53.4742 56.0525 53.8258 55.7008C54.1775 55.3492 54.375 54.8723 54.375 54.375V28.125C54.3754 27.8786 54.3273 27.6345 54.2334 27.4068C54.1394 27.179 54.0015 26.9719 53.8275 26.7975L48.75 21.7237V9.37499C48.75 8.87771 48.5525 8.4008 48.2008 8.04917C47.8492 7.69754 47.3723 7.49999 46.875 7.49999H43.125C42.6277 7.49999 42.1508 7.69754 41.7992 8.04917C41.4475 8.4008 41.25 8.87771 41.25 9.37499V14.2237L31.3275 4.29749ZM9.375 52.5V28.9012L30 8.27624L50.625 28.9012V52.5H37.5V37.5C37.5 37.0027 37.3025 36.5258 36.9508 36.1742C36.5992 35.8225 36.1223 35.625 35.625 35.625H24.375C23.8777 35.625 23.4008 35.8225 23.0492 36.1742C22.6975 36.5258 22.5 37.0027 22.5 37.5V52.5H9.375Z" fill="#6574CD"/>
</svg>
