<svg width="60" height="60" viewBox="0 0 60 60" fill="none" xmlns="http://www.w3.org/2000/svg">
<g clip-path="url(#clip0_679_10324)">
<path d="M52.5 18.75C53.4946 18.75 54.4484 19.1451 55.1516 19.8484C55.8549 20.5516 56.25 21.5054 56.25 22.5V41.25C56.25 42.2446 55.8549 43.1984 55.1516 43.9016C54.4484 44.6049 53.4946 45 52.5 45H7.5C6.50544 45 5.55161 44.6049 4.84835 43.9016C4.14509 43.1984 3.75 42.2446 3.75 41.25V22.5C3.75 21.5054 4.14509 20.5516 4.84835 19.8484C5.55161 19.1451 6.50544 18.75 7.5 18.75H52.5ZM7.5 15C5.51088 15 3.60322 15.7902 2.1967 17.1967C0.790176 18.6032 0 20.5109 0 22.5L0 41.25C0 43.2391 0.790176 45.1468 2.1967 46.5533C3.60322 47.9598 5.51088 48.75 7.5 48.75H52.5C54.4891 48.75 56.3968 47.9598 57.8033 46.5533C59.2098 45.1468 60 43.2391 60 41.25V22.5C60 20.5109 59.2098 18.6032 57.8033 17.1967C56.3968 15.7902 54.4891 15 52.5 15H7.5Z" fill="#6574CD"/>
<path d="M48.75 38.4375C48.75 38.1889 48.8488 37.9504 49.0246 37.7746C49.2004 37.5988 49.4389 37.5 49.6875 37.5H51.5625C51.8111 37.5 52.0496 37.5988 52.2254 37.7746C52.4012 37.9504 52.5 38.1889 52.5 38.4375V40.3125C52.5 40.5611 52.4012 40.7996 52.2254 40.9754C52.0496 41.1512 51.8111 41.25 51.5625 41.25H49.6875C49.4389 41.25 49.2004 41.1512 49.0246 40.9754C48.8488 40.7996 48.75 40.5611 48.75 40.3125V38.4375ZM48.75 30.9375C48.75 30.6889 48.8488 30.4504 49.0246 30.2746C49.2004 30.0988 49.4389 30 49.6875 30H51.5625C51.8111 30 52.0496 30.0988 52.2254 30.2746C52.4012 30.4504 52.5 30.6889 52.5 30.9375V32.8125C52.5 33.0611 52.4012 33.2996 52.2254 33.4754C52.0496 33.6512 51.8111 33.75 51.5625 33.75H49.6875C49.4389 33.75 49.2004 33.6512 49.0246 33.4754C48.8488 33.2996 48.75 33.0611 48.75 32.8125V30.9375ZM30 30.9375C30 30.6889 30.0988 30.4504 30.2746 30.2746C30.4504 30.0988 30.6889 30 30.9375 30H32.8125C33.0611 30 33.2996 30.0988 33.4754 30.2746C33.6512 30.4504 33.75 30.6889 33.75 30.9375V32.8125C33.75 33.0611 33.6512 33.2996 33.4754 33.4754C33.2996 33.6512 33.0611 33.75 32.8125 33.75H30.9375C30.6889 33.75 30.4504 33.6512 30.2746 33.4754C30.0988 33.2996 30 33.0611 30 32.8125V30.9375ZM37.5 30.9375C37.5 30.6889 37.5988 30.4504 37.7746 30.2746C37.9504 30.0988 38.1889 30 38.4375 30H44.0625C44.3111 30 44.5496 30.0988 44.7254 30.2746C44.9012 30.4504 45 30.6889 45 30.9375V32.8125C45 33.0611 44.9012 33.2996 44.7254 33.4754C44.5496 33.6512 44.3111 33.75 44.0625 33.75H38.4375C38.1889 33.75 37.9504 33.6512 37.7746 33.4754C37.5988 33.2996 37.5 33.0611 37.5 32.8125V30.9375ZM41.25 38.4375C41.25 38.1889 41.3488 37.9504 41.5246 37.7746C41.7004 37.5988 41.9389 37.5 42.1875 37.5H44.0625C44.3111 37.5 44.5496 37.5988 44.7254 37.7746C44.9012 37.9504 45 38.1889 45 38.4375V40.3125C45 40.5611 44.9012 40.7996 44.7254 40.9754C44.5496 41.1512 44.3111 41.25 44.0625 41.25H42.1875C41.9389 41.25 41.7004 41.1512 41.5246 40.9754C41.3488 40.7996 41.25 40.5611 41.25 40.3125V38.4375ZM22.5 30.9375C22.5 30.6889 22.5988 30.4504 22.7746 30.2746C22.9504 30.0988 23.1889 30 23.4375 30H25.3125C25.5611 30 25.7996 30.0988 25.9754 30.2746C26.1512 30.4504 26.25 30.6889 26.25 30.9375V32.8125C26.25 33.0611 26.1512 33.2996 25.9754 33.4754C25.7996 33.6512 25.5611 33.75 25.3125 33.75H23.4375C23.1889 33.75 22.9504 33.6512 22.7746 33.4754C22.5988 33.2996 22.5 33.0611 22.5 32.8125V30.9375ZM15 30.9375C15 30.6889 15.0988 30.4504 15.2746 30.2746C15.4504 30.0988 15.6889 30 15.9375 30H17.8125C18.0611 30 18.2996 30.0988 18.4754 30.2746C18.6512 30.4504 18.75 30.6889 18.75 30.9375V32.8125C18.75 33.0611 18.6512 33.2996 18.4754 33.4754C18.2996 33.6512 18.0611 33.75 17.8125 33.75H15.9375C15.6889 33.75 15.4504 33.6512 15.2746 33.4754C15.0988 33.2996 15 33.0611 15 32.8125V30.9375ZM7.5 30.9375C7.5 30.6889 7.59877 30.4504 7.77459 30.2746C7.9504 30.0988 8.18886 30 8.4375 30H10.3125C10.5611 30 10.7996 30.0988 10.9754 30.2746C11.1512 30.4504 11.25 30.6889 11.25 30.9375V32.8125C11.25 33.0611 11.1512 33.2996 10.9754 33.4754C10.7996 33.6512 10.5611 33.75 10.3125 33.75H8.4375C8.18886 33.75 7.9504 33.6512 7.77459 33.4754C7.59877 33.2996 7.5 33.0611 7.5 32.8125V30.9375ZM48.75 23.4375C48.75 23.1889 48.8488 22.9504 49.0246 22.7746C49.2004 22.5988 49.4389 22.5 49.6875 22.5H51.5625C51.8111 22.5 52.0496 22.5988 52.2254 22.7746C52.4012 22.9504 52.5 23.1889 52.5 23.4375V25.3125C52.5 25.5611 52.4012 25.7996 52.2254 25.9754C52.0496 26.1512 51.8111 26.25 51.5625 26.25H49.6875C49.4389 26.25 49.2004 26.1512 49.0246 25.9754C48.8488 25.7996 48.75 25.5611 48.75 25.3125V23.4375ZM41.25 23.4375C41.25 23.1889 41.3488 22.9504 41.5246 22.7746C41.7004 22.5988 41.9389 22.5 42.1875 22.5H44.0625C44.3111 22.5 44.5496 22.5988 44.7254 22.7746C44.9012 22.9504 45 23.1889 45 23.4375V25.3125C45 25.5611 44.9012 25.7996 44.7254 25.9754C44.5496 26.1512 44.3111 26.25 44.0625 26.25H42.1875C41.9389 26.25 41.7004 26.1512 41.5246 25.9754C41.3488 25.7996 41.25 25.5611 41.25 25.3125V23.4375ZM33.75 23.4375C33.75 23.1889 33.8488 22.9504 34.0246 22.7746C34.2004 22.5988 34.4389 22.5 34.6875 22.5H36.5625C36.8111 22.5 37.0496 22.5988 37.2254 22.7746C37.4012 22.9504 37.5 23.1889 37.5 23.4375V25.3125C37.5 25.5611 37.4012 25.7996 37.2254 25.9754C37.0496 26.1512 36.8111 26.25 36.5625 26.25H34.6875C34.4389 26.25 34.2004 26.1512 34.0246 25.9754C33.8488 25.7996 33.75 25.5611 33.75 25.3125V23.4375ZM26.25 23.4375C26.25 23.1889 26.3488 22.9504 26.5246 22.7746C26.7004 22.5988 26.9389 22.5 27.1875 22.5H29.0625C29.3111 22.5 29.5496 22.5988 29.7254 22.7746C29.9012 22.9504 30 23.1889 30 23.4375V25.3125C30 25.5611 29.9012 25.7996 29.7254 25.9754C29.5496 26.1512 29.3111 26.25 29.0625 26.25H27.1875C26.9389 26.25 26.7004 26.1512 26.5246 25.9754C26.3488 25.7996 26.25 25.5611 26.25 25.3125V23.4375ZM18.75 23.4375C18.75 23.1889 18.8488 22.9504 19.0246 22.7746C19.2004 22.5988 19.4389 22.5 19.6875 22.5H21.5625C21.8111 22.5 22.0496 22.5988 22.2254 22.7746C22.4012 22.9504 22.5 23.1889 22.5 23.4375V25.3125C22.5 25.5611 22.4012 25.7996 22.2254 25.9754C22.0496 26.1512 21.8111 26.25 21.5625 26.25H19.6875C19.4389 26.25 19.2004 26.1512 19.0246 25.9754C18.8488 25.7996 18.75 25.5611 18.75 25.3125V23.4375ZM7.5 23.4375C7.5 23.1889 7.59877 22.9504 7.77459 22.7746C7.9504 22.5988 8.18886 22.5 8.4375 22.5H14.0625C14.3111 22.5 14.5496 22.5988 14.7254 22.7746C14.9012 22.9504 15 23.1889 15 23.4375V25.3125C15 25.5611 14.9012 25.7996 14.7254 25.9754C14.5496 26.1512 14.3111 26.25 14.0625 26.25H8.4375C8.18886 26.25 7.9504 26.1512 7.77459 25.9754C7.59877 25.7996 7.5 25.5611 7.5 25.3125V23.4375ZM7.5 38.4375C7.5 38.1889 7.59877 37.9504 7.77459 37.7746C7.9504 37.5988 8.18886 37.5 8.4375 37.5H10.3125C10.5611 37.5 10.7996 37.5988 10.9754 37.7746C11.1512 37.9504 11.25 38.1889 11.25 38.4375V40.3125C11.25 40.5611 11.1512 40.7996 10.9754 40.9754C10.7996 41.1512 10.5611 41.25 10.3125 41.25H8.4375C8.18886 41.25 7.9504 41.1512 7.77459 40.9754C7.59877 40.7996 7.5 40.5611 7.5 40.3125V38.4375ZM15 38.4375C15 38.1889 15.0988 37.9504 15.2746 37.7746C15.4504 37.5988 15.6889 37.5 15.9375 37.5H36.5625C36.8111 37.5 37.0496 37.5988 37.2254 37.7746C37.4012 37.9504 37.5 38.1889 37.5 38.4375V40.3125C37.5 40.5611 37.4012 40.7996 37.2254 40.9754C37.0496 41.1512 36.8111 41.25 36.5625 41.25H15.9375C15.6889 41.25 15.4504 41.1512 15.2746 40.9754C15.0988 40.7996 15 40.5611 15 40.3125V38.4375Z" fill="#6574CD"/>
</g>
<defs>
<clipPath id="clip0_679_10324">
<rect width="60" height="60" fill="white"/>
</clipPath>
</defs>
</svg>
