<svg width="60" height="60" viewBox="0 0 60 60" fill="none" xmlns="http://www.w3.org/2000/svg">
<path fill-rule="evenodd" clip-rule="evenodd" d="M18.75 43.125C18.75 42.6277 18.9475 42.1508 19.2992 41.7992C19.6508 41.4475 20.1277 41.25 20.625 41.25H54.375C54.8723 41.25 55.3492 41.4475 55.7008 41.7992C56.0525 42.1508 56.25 42.6277 56.25 43.125C56.25 43.6223 56.0525 44.0992 55.7008 44.4508C55.3492 44.8025 54.8723 45 54.375 45H20.625C20.1277 45 19.6508 44.8025 19.2992 44.4508C18.9475 44.0992 18.75 43.6223 18.75 43.125ZM18.75 28.125C18.75 27.6277 18.9475 27.1508 19.2992 26.7992C19.6508 26.4475 20.1277 26.25 20.625 26.25H54.375C54.8723 26.25 55.3492 26.4475 55.7008 26.7992C56.0525 27.1508 56.25 27.6277 56.25 28.125C56.25 28.6223 56.0525 29.0992 55.7008 29.4508C55.3492 29.8025 54.8723 30 54.375 30H20.625C20.1277 30 19.6508 29.8025 19.2992 29.4508C18.9475 29.0992 18.75 28.6223 18.75 28.125ZM18.75 13.125C18.75 12.6277 18.9475 12.1508 19.2992 11.7992C19.6508 11.4475 20.1277 11.25 20.625 11.25H54.375C54.8723 11.25 55.3492 11.4475 55.7008 11.7992C56.0525 12.1508 56.25 12.6277 56.25 13.125C56.25 13.6223 56.0525 14.0992 55.7008 14.4508C55.3492 14.8025 54.8723 15 54.375 15H20.625C20.1277 15 19.6508 14.8025 19.2992 14.4508C18.9475 14.0992 18.75 13.6223 18.75 13.125ZM7.5 16.875C8.49456 16.875 9.44839 16.4799 10.1517 15.7766C10.8549 15.0734 11.25 14.1196 11.25 13.125C11.25 12.1304 10.8549 11.1766 10.1517 10.4733C9.44839 9.77009 8.49456 9.375 7.5 9.375C6.50544 9.375 5.55161 9.77009 4.84835 10.4733C4.14509 11.1766 3.75 12.1304 3.75 13.125C3.75 14.1196 4.14509 15.0734 4.84835 15.7766C5.55161 16.4799 6.50544 16.875 7.5 16.875ZM7.5 31.875C8.49456 31.875 9.44839 31.4799 10.1517 30.7766C10.8549 30.0734 11.25 29.1196 11.25 28.125C11.25 27.1304 10.8549 26.1766 10.1517 25.4734C9.44839 24.7701 8.49456 24.375 7.5 24.375C6.50544 24.375 5.55161 24.7701 4.84835 25.4734C4.14509 26.1766 3.75 27.1304 3.75 28.125C3.75 29.1196 4.14509 30.0734 4.84835 30.7766C5.55161 31.4799 6.50544 31.875 7.5 31.875ZM7.5 46.875C8.49456 46.875 9.44839 46.4799 10.1517 45.7766C10.8549 45.0734 11.25 44.1196 11.25 43.125C11.25 42.1304 10.8549 41.1766 10.1517 40.4734C9.44839 39.7701 8.49456 39.375 7.5 39.375C6.50544 39.375 5.55161 39.7701 4.84835 40.4734C4.14509 41.1766 3.75 42.1304 3.75 43.125C3.75 44.1196 4.14509 45.0734 4.84835 45.7766C5.55161 46.4799 6.50544 46.875 7.5 46.875Z" fill="#6574CD"/>
</svg>
