<svg width="60" height="60" viewBox="0 0 60 60" fill="none" xmlns="http://www.w3.org/2000/svg">
<path d="M58.1324 7.27501C58.4828 7.62647 58.6795 8.1025 58.6795 8.59876C58.6795 9.09502 58.4828 9.57105 58.1324 9.92251L54.2212 13.8375L46.7212 6.33751L50.6324 2.42251C50.984 2.071 51.4609 1.87354 51.958 1.87354C52.4552 1.87354 52.932 2.071 53.2837 2.42251L58.1324 7.27126V7.27501ZM51.5699 16.485L44.0699 8.98501L18.5212 34.5375C18.3148 34.7439 18.1594 34.9955 18.0674 35.2725L15.0487 44.325C14.9939 44.49 14.9861 44.667 15.0262 44.8362C15.0663 45.0054 15.1526 45.1602 15.2756 45.2831C15.3985 45.4061 15.5532 45.4924 15.7224 45.5325C15.8916 45.5725 16.0686 45.5648 16.2337 45.51L25.2862 42.4913C25.5628 42.4004 25.8144 42.2463 26.0212 42.0413L51.5699 16.485Z" fill="#6574CD"/>
<path fill-rule="evenodd" clip-rule="evenodd" d="M3.75 50.625C3.75 52.1168 4.34263 53.5476 5.39752 54.6025C6.45242 55.6574 7.88316 56.25 9.375 56.25H50.625C52.1168 56.25 53.5476 55.6574 54.6025 54.6025C55.6574 53.5476 56.25 52.1168 56.25 50.625V28.125C56.25 27.6277 56.0525 27.1508 55.7008 26.7992C55.3492 26.4475 54.8723 26.25 54.375 26.25C53.8777 26.25 53.4008 26.4475 53.0492 26.7992C52.6975 27.1508 52.5 27.6277 52.5 28.125V50.625C52.5 51.1223 52.3025 51.5992 51.9508 51.9508C51.5992 52.3025 51.1223 52.5 50.625 52.5H9.375C8.87772 52.5 8.40081 52.3025 8.04918 51.9508C7.69754 51.5992 7.5 51.1223 7.5 50.625V9.375C7.5 8.87772 7.69754 8.40081 8.04918 8.04918C8.40081 7.69754 8.87772 7.5 9.375 7.5H33.75C34.2473 7.5 34.7242 7.30246 35.0758 6.95083C35.4275 6.59919 35.625 6.12228 35.625 5.625C35.625 5.12772 35.4275 4.65081 35.0758 4.29917C34.7242 3.94754 34.2473 3.75 33.75 3.75H9.375C7.88316 3.75 6.45242 4.34263 5.39752 5.39752C4.34263 6.45242 3.75 7.88316 3.75 9.375V50.625Z" fill="#6574CD"/>
</svg>
