<svg width="60" height="60" viewBox="0 0 60 60" fill="none" xmlns="http://www.w3.org/2000/svg">
<g clip-path="url(#clip0_679_10318)">
<path d="M52.5 3.75C53.4946 3.75 54.4484 4.14509 55.1516 4.84835C55.8549 5.55161 56.25 6.50544 56.25 7.5V52.5C56.25 53.4946 55.8549 54.4484 55.1516 55.1516C54.4484 55.8549 53.4946 56.25 52.5 56.25H7.5C6.50544 56.25 5.55161 55.8549 4.84835 55.1516C4.14509 54.4484 3.75 53.4946 3.75 52.5V7.5C3.75 6.50544 4.14509 5.55161 4.84835 4.84835C5.55161 4.14509 6.50544 3.75 7.5 3.75H52.5ZM7.5 0C5.51088 0 3.60322 0.790176 2.1967 2.1967C0.790176 3.60322 0 5.51088 0 7.5L0 52.5C0 54.4891 0.790176 56.3968 2.1967 57.8033C3.60322 59.2098 5.51088 60 7.5 60H52.5C54.4891 60 56.3968 59.2098 57.8033 57.8033C59.2098 56.3968 60 54.4891 60 52.5V7.5C60 5.51088 59.2098 3.60322 57.8033 2.1967C56.3968 0.790176 54.4891 0 52.5 0L7.5 0Z" fill="#6574CD"/>
<path d="M19.7064 21.6975C19.7012 21.8186 19.7209 21.9395 19.7642 22.0527C19.8075 22.1659 19.8735 22.2691 19.9582 22.3558C20.0428 22.4426 20.1443 22.5111 20.2565 22.5572C20.3686 22.6032 20.4889 22.6259 20.6101 22.6237H23.7039C24.2214 22.6237 24.6339 22.2 24.7014 21.6862C25.0389 19.2262 26.7264 17.4338 29.7339 17.4338C32.3064 17.4338 34.6614 18.72 34.6614 21.8137C34.6614 24.195 33.2589 25.29 31.0426 26.955C28.5189 28.7887 26.5201 30.93 26.6626 34.4062L26.6739 35.22C26.6778 35.466 26.7783 35.7006 26.9537 35.8732C27.1291 36.0458 27.3653 36.1425 27.6114 36.1425H30.6526C30.9013 36.1425 31.1397 36.0437 31.3155 35.8679C31.4913 35.6921 31.5901 35.4536 31.5901 35.205V34.8112C31.5901 32.1187 32.6139 31.335 35.3776 29.2387C37.6614 27.5025 40.0426 25.575 40.0426 21.5287C40.0426 15.8625 35.2576 13.125 30.0189 13.125C25.2676 13.125 20.0626 15.3375 19.7064 21.6975ZM25.5451 43.3087C25.5451 45.3075 27.1389 46.785 29.3326 46.785C31.6164 46.785 33.1876 45.3075 33.1876 43.3087C33.1876 41.2387 31.6126 39.7837 29.3289 39.7837C27.1389 39.7837 25.5451 41.2387 25.5451 43.3087Z" fill="#6574CD"/>
</g>
<defs>
<clipPath id="clip0_679_10318">
<rect width="60" height="60" fill="white"/>
</clipPath>
</defs>
</svg>
