<svg width="60" height="60" viewBox="0 0 60 60" fill="none" xmlns="http://www.w3.org/2000/svg">
<g clip-path="url(#clip0_679_10312)">
<path d="M44.0324 38.79C47.6636 33.8351 49.2899 27.6918 48.5861 21.5893C47.8823 15.4868 44.9002 9.87503 40.2366 5.87675C35.5729 1.87846 29.5715 -0.211476 23.4331 0.0250483C17.2947 0.261573 11.4719 2.80712 7.1297 7.15241C2.78752 11.4977 0.246138 17.3223 0.0140065 23.4609C-0.218125 29.5995 1.87611 35.5994 5.87773 40.2602C9.87935 44.921 15.4932 47.899 21.5963 48.5985C27.6993 49.2979 33.8414 47.6672 38.7937 44.0325H38.7899C38.8999 44.1825 39.0224 44.3263 39.1574 44.4638L53.5949 58.9013C54.2981 59.6049 55.252 60.0004 56.2467 60.0008C57.2415 60.0011 58.1957 59.6063 58.8993 58.9031C59.603 58.2 59.9985 57.2461 59.9988 56.2513C59.9992 55.2566 59.6044 54.3024 58.9012 53.5988L44.4637 39.1613C44.3297 39.0255 44.1855 38.9039 44.0324 38.79ZM44.9999 24.375C44.9999 27.0835 44.4665 29.7655 43.43 32.2679C42.3935 34.7702 40.8742 37.0439 38.959 38.9591C37.0438 40.8743 34.7701 42.3935 32.2678 43.43C29.7655 44.4665 27.0835 45 24.3749 45C21.6664 45 18.9844 44.4665 16.4821 43.43C13.9798 42.3935 11.7061 40.8743 9.79087 38.9591C7.87566 37.0439 6.35644 34.7702 5.31993 32.2679C4.28343 29.7655 3.74995 27.0835 3.74995 24.375C3.74995 18.9049 5.92293 13.6589 9.79087 9.79093C13.6588 5.923 18.9049 3.75001 24.3749 3.75001C29.845 3.75001 35.0911 5.923 38.959 9.79093C42.827 13.6589 44.9999 18.9049 44.9999 24.375Z" fill="#6574CD"/>
</g>
<defs>
<clipPath id="clip0_679_10312">
<rect width="60" height="60" fill="white"/>
</clipPath>
</defs>
</svg>
