<svg width="60" height="60" viewBox="0 0 60 60" fill="none" xmlns="http://www.w3.org/2000/svg">
<g clip-path="url(#clip0_681_10338)">
<path fill-rule="evenodd" clip-rule="evenodd" d="M41.6099 2.41506C43.0279 1.06889 44.9155 0.329656 46.8705 0.354873C48.8255 0.38009 50.6934 1.16776 52.0762 2.55006L57.4499 7.92381C58.8317 9.30706 59.6187 11.1752 59.6432 13.1303C59.6678 15.0853 58.9278 16.9726 57.5812 18.3901L56.0324 20.0213L25.7699 53.7526C25.5941 53.9484 25.3791 54.1051 25.1387 54.2123C24.8984 54.3196 24.6381 54.375 24.3749 54.3751H13.1249C12.8191 54.3752 12.5178 54.3005 12.2474 54.1576L10.7024 55.7026C10.528 55.8766 10.321 56.0145 10.0932 56.1084C9.86539 56.2024 9.62133 56.2505 9.37494 56.2501H1.87494C1.50361 56.2507 1.14045 56.1411 0.831488 55.9351C0.522528 55.7292 0.281687 55.4361 0.139496 55.093C-0.00269432 54.75 -0.039831 54.3725 0.0327945 54.0083C0.10542 53.6442 0.284537 53.3098 0.547438 53.0476L5.84244 47.7526C5.69945 47.4822 5.62478 47.1809 5.62494 46.8751V35.6251C5.62498 35.3619 5.68043 35.1016 5.78768 34.8613C5.89493 34.6209 6.05158 34.4059 6.24744 34.2301L39.9787 3.96756L41.6099 2.41506ZM41.1787 7.92756L10.2262 35.7001L24.2999 49.7738L52.0724 18.8213L41.1787 7.92756ZM54.6224 16.0651L54.8624 15.8101C55.5366 15.1015 55.9072 14.1576 55.8953 13.1796C55.8834 12.2016 55.4899 11.267 54.7987 10.5751L49.4249 5.20131C48.7335 4.5096 47.7991 4.11541 46.8212 4.1028C45.8432 4.09019 44.899 4.46016 44.1899 5.13381L43.9349 5.37756L54.6224 16.0651ZM19.8487 50.6251L9.37494 40.1513V46.0988L13.9012 50.6251H19.8487Z" fill="#6475CD"/>
</g>
<defs>
<clipPath id="clip0_681_10338">
<rect width="60" height="60" fill="white"/>
</clipPath>
</defs>
</svg>
