<svg width="60" height="60" viewBox="0 0 60 60" fill="none" xmlns="http://www.w3.org/2000/svg">
<g clip-path="url(#clip0_681_10340)">
<path d="M9.375 30C9.87228 30 10.3492 29.8025 10.7008 29.4508C11.0525 29.0992 11.25 28.6223 11.25 28.125C11.25 27.6277 11.0525 27.1508 10.7008 26.7992C10.3492 26.4475 9.87228 26.25 9.375 26.25C8.87772 26.25 8.40081 26.4475 8.04918 26.7992C7.69754 27.1508 7.5 27.6277 7.5 28.125C7.5 28.6223 7.69754 29.0992 8.04918 29.4508C8.40081 29.8025 8.87772 30 9.375 30Z" fill="#6475CD"/>
<path d="M18.75 3.75C16.7609 3.75 14.8532 4.54018 13.4467 5.9467C12.0402 7.35322 11.25 9.26088 11.25 11.25V18.75H7.5C5.51088 18.75 3.60322 19.5402 2.1967 20.9467C0.790176 22.3532 0 24.2609 0 26.25L0 37.5C0 39.4891 0.790176 41.3968 2.1967 42.8033C3.60322 44.2098 5.51088 45 7.5 45H11.25V48.75C11.25 50.7391 12.0402 52.6468 13.4467 54.0533C14.8532 55.4598 16.7609 56.25 18.75 56.25H41.25C43.2391 56.25 45.1468 55.4598 46.5533 54.0533C47.9598 52.6468 48.75 50.7391 48.75 48.75V45H52.5C54.4891 45 56.3968 44.2098 57.8033 42.8033C59.2098 41.3968 60 39.4891 60 37.5V26.25C60 24.2609 59.2098 22.3532 57.8033 20.9467C56.3968 19.5402 54.4891 18.75 52.5 18.75H48.75V11.25C48.75 9.26088 47.9598 7.35322 46.5533 5.9467C45.1468 4.54018 43.2391 3.75 41.25 3.75H18.75ZM15 11.25C15 10.2554 15.3951 9.30161 16.0984 8.59835C16.8016 7.89509 17.7554 7.5 18.75 7.5H41.25C42.2446 7.5 43.1984 7.89509 43.9016 8.59835C44.6049 9.30161 45 10.2554 45 11.25V18.75H15V11.25ZM18.75 30C16.7609 30 14.8532 30.7902 13.4467 32.1967C12.0402 33.6032 11.25 35.5109 11.25 37.5V41.25H7.5C6.50544 41.25 5.55161 40.8549 4.84835 40.1516C4.14509 39.4484 3.75 38.4946 3.75 37.5V26.25C3.75 25.2554 4.14509 24.3016 4.84835 23.5984C5.55161 22.8951 6.50544 22.5 7.5 22.5H52.5C53.4946 22.5 54.4484 22.8951 55.1516 23.5984C55.8549 24.3016 56.25 25.2554 56.25 26.25V37.5C56.25 38.4946 55.8549 39.4484 55.1516 40.1516C54.4484 40.8549 53.4946 41.25 52.5 41.25H48.75V37.5C48.75 35.5109 47.9598 33.6032 46.5533 32.1967C45.1468 30.7902 43.2391 30 41.25 30H18.75ZM45 37.5V48.75C45 49.7446 44.6049 50.6984 43.9016 51.4016C43.1984 52.1049 42.2446 52.5 41.25 52.5H18.75C17.7554 52.5 16.8016 52.1049 16.0984 51.4016C15.3951 50.6984 15 49.7446 15 48.75V37.5C15 36.5054 15.3951 35.5516 16.0984 34.8484C16.8016 34.1451 17.7554 33.75 18.75 33.75H41.25C42.2446 33.75 43.1984 34.1451 43.9016 34.8484C44.6049 35.5516 45 36.5054 45 37.5Z" fill="#6475CD"/>
</g>
<defs>
<clipPath id="clip0_681_10340">
<rect width="60" height="60" fill="white"/>
</clipPath>
</defs>
</svg>
