<svg width="60" height="60" viewBox="0 0 60 60" fill="none" xmlns="http://www.w3.org/2000/svg">
<g clip-path="url(#clip0_681_10330)">
<path d="M50.625 3.74996C49.1332 3.74996 47.7024 4.34259 46.6475 5.39748C45.5926 6.45237 45 7.88311 45 9.37496C45 10.8668 45.5926 12.2975 46.6475 13.3524C47.7024 14.4073 49.1332 15 50.625 15C52.1169 15 53.5476 14.4073 54.6025 13.3524C55.6574 12.2975 56.25 10.8668 56.25 9.37496C56.25 7.88311 55.6574 6.45237 54.6025 5.39748C53.5476 4.34259 52.1169 3.74996 50.625 3.74996ZM41.25 9.37496C41.2497 7.17533 42.0229 5.04564 43.4343 3.3585C44.8456 1.67136 46.8053 0.534195 48.9704 0.145971C51.1355 -0.242253 53.3681 0.143182 55.2778 1.23484C57.1874 2.3265 58.6523 4.05487 59.4163 6.11755C60.1804 8.18023 60.1947 10.4459 59.457 12.5181C58.7193 14.5903 57.2764 16.3372 55.3808 17.453C53.4852 18.5688 51.2576 18.9826 49.0877 18.6219C46.9179 18.2612 44.9439 17.149 43.5113 15.48L18.3188 27.18C18.8977 29.0154 18.8977 30.9845 18.3188 32.82L43.5113 44.52C45.0257 42.7587 47.14 41.6224 49.4445 41.3312C51.749 41.0399 54.0795 41.6146 55.9844 42.9438C57.8894 44.273 59.233 46.262 59.755 48.5254C60.277 50.7888 59.9401 53.1654 58.8097 55.1946C57.6793 57.2238 55.8358 58.7611 53.6366 59.5085C51.4373 60.256 49.0389 60.1604 46.9061 59.2402C44.7733 58.3201 43.058 56.641 42.0927 54.5282C41.1274 52.4155 40.9808 50.0196 41.6813 47.805L16.4888 36.105C15.2416 37.5583 13.5793 38.5949 11.7254 39.0753C9.87154 39.5556 7.91501 39.4567 6.11904 38.7918C4.32306 38.1268 2.7738 36.9278 1.67967 35.356C0.585539 33.7842 -0.000976563 31.9151 -0.000976562 30C-0.000976563 28.0848 0.585539 26.2157 1.67967 24.6439C2.7738 23.0721 4.32306 21.8731 6.11904 21.2082C7.91501 20.5432 9.87154 20.4443 11.7254 20.9246C13.5793 21.405 15.2416 22.4416 16.4888 23.895L41.6813 12.195C41.3945 11.2825 41.2491 10.3315 41.25 9.37496ZM9.37502 24.375C7.88318 24.375 6.45244 24.9676 5.39754 26.0225C4.34265 27.0774 3.75002 28.5081 3.75002 30C3.75002 31.4918 4.34265 32.9225 5.39754 33.9774C6.45244 35.0323 7.88318 35.625 9.37502 35.625C10.8669 35.625 12.2976 35.0323 13.3525 33.9774C14.4074 32.9225 15 31.4918 15 30C15 28.5081 14.4074 27.0774 13.3525 26.0225C12.2976 24.9676 10.8669 24.375 9.37502 24.375ZM50.625 45C49.1332 45 47.7024 45.5926 46.6475 46.6475C45.5926 47.7024 45 49.1331 45 50.625C45 52.1168 45.5926 53.5475 46.6475 54.6024C47.7024 55.6573 49.1332 56.25 50.625 56.25C52.1169 56.25 53.5476 55.6573 54.6025 54.6024C55.6574 53.5475 56.25 52.1168 56.25 50.625C56.25 49.1331 55.6574 47.7024 54.6025 46.6475C53.5476 45.5926 52.1169 45 50.625 45Z" fill="#6475CD"/>
</g>
<defs>
<clipPath id="clip0_681_10330">
<rect width="60" height="60" fill="white"/>
</clipPath>
</defs>
</svg>
