<?xml version="1.0" encoding="UTF-8"?><svg id="Capa_2" xmlns="http://www.w3.org/2000/svg" viewBox="0 0 1104.21 233.21"><defs><style>.cls-1{fill:#7bd235;}.cls-2{fill:#fbb034;}.cls-3{fill:#cf0a2c;}.cls-4{fill:#45aaf2;}</style></defs><g id="Capa_1-2"><g><path d="M275.5,188.93V34.38h98.97v22.14h-73.95v42.95h67.09v22.14h-67.09v45.17h73.95v22.14h-98.97Z"/><path d="M487.17,188.93c-6.35,0-11.22-1.81-14.61-5.43-3.4-3.61-5.46-8.23-6.2-13.84h-1.11c-2.21,7.24-6.28,12.7-12.18,16.39-5.91,3.69-13.06,5.54-21.48,5.54-11.96,0-21.15-3.1-27.57-9.3-6.42-6.2-9.63-14.54-9.63-25.02,0-11.51,4.17-20.15,12.51-25.91,8.34-5.76,20.55-8.63,36.65-8.63h20.81v-9.74c0-7.09-1.92-12.54-5.76-16.39-3.84-3.84-9.82-5.76-17.93-5.76-6.79,0-12.33,1.48-16.61,4.43-4.28,2.95-7.9,6.72-10.85,11.29l-14.39-13.06c3.84-6.49,9.22-11.84,16.16-16.05,6.94-4.21,16.01-6.31,27.23-6.31,14.91,0,26.35,3.47,34.32,10.41,7.97,6.94,11.96,16.9,11.96,29.89v57.79h12.18v19.71h-13.51Zm-48.71-15.72c7.53,0,13.73-1.66,18.6-4.98,4.87-3.32,7.31-7.78,7.31-13.4v-16.61h-20.37c-16.68,0-25.02,5.17-25.02,15.5v3.99c0,5.17,1.73,9.04,5.2,11.62,3.47,2.58,8.23,3.87,14.28,3.87Z"/><path d="M558.68,191.58c-10.93,0-20.08-1.92-27.46-5.76-7.38-3.84-13.8-9.15-19.26-15.94l15.5-14.17c4.28,5.17,9.04,9.19,14.28,12.07,5.24,2.88,11.33,4.32,18.27,4.32s12.36-1.36,15.83-4.1c3.47-2.73,5.2-6.53,5.2-11.4,0-3.69-1.22-6.83-3.65-9.41-2.44-2.58-6.68-4.24-12.73-4.98l-10.63-1.33c-11.81-1.47-21.07-4.91-27.79-10.3-6.72-5.39-10.07-13.4-10.07-24.02,0-5.61,1.03-10.59,3.1-14.94,2.07-4.35,4.98-8.04,8.75-11.07,3.77-3.02,8.27-5.35,13.51-6.97,5.24-1.62,11.03-2.44,17.38-2.44,10.33,0,18.78,1.63,25.35,4.87,6.57,3.25,12.43,7.75,17.6,13.51l-14.84,14.17c-2.95-3.54-6.83-6.6-11.62-9.19-4.8-2.58-10.3-3.87-16.5-3.87-6.64,0-11.55,1.33-14.72,3.99-3.18,2.66-4.76,6.13-4.76,10.41s1.4,7.75,4.21,9.96c2.8,2.21,7.31,3.84,13.51,4.87l10.63,1.33c12.69,1.92,21.96,5.65,27.79,11.18,5.83,5.53,8.75,12.95,8.75,22.25,0,5.61-1.07,10.67-3.21,15.17-2.14,4.51-5.2,8.38-9.19,11.63-3.99,3.25-8.78,5.76-14.39,7.53-5.61,1.77-11.88,2.66-18.82,2.66Z"/><path d="M696.84,73.79h23.25l-48.49,137.94c-1.33,3.84-2.84,7.12-4.54,9.85-1.7,2.73-3.69,4.95-5.98,6.64-2.29,1.7-5.06,2.95-8.3,3.76-3.25,.81-7.09,1.22-11.51,1.22h-13.95v-19.71h19.48l6.64-19.49-41.85-120.23h24.13l23.03,67.75,6.64,25.02h1.11l7.31-25.02,23.03-67.75Z"/><path d="M785.85,191.58c-12.99,0-24.02-2.36-33.1-7.09-9.08-4.72-16.87-11.07-23.36-19.04l17.27-16.16c5.46,6.64,11.47,11.66,18.05,15.06,6.57,3.4,14.06,5.09,22.47,5.09,9.89,0,17.34-2.21,22.36-6.64,5.02-4.43,7.53-10.41,7.53-17.93,0-6.05-1.77-10.85-5.31-14.39s-9.82-6.2-18.82-7.97l-13.73-2.44c-15.06-2.8-26.35-7.75-33.88-14.83-7.53-7.09-11.29-16.83-11.29-29.23,0-6.79,1.29-12.95,3.87-18.49,2.58-5.54,6.2-10.19,10.85-13.95,4.65-3.76,10.3-6.68,16.94-8.75,6.64-2.06,14.09-3.1,22.36-3.1,11.66,0,21.77,2.03,30.33,6.09,8.56,4.06,15.86,9.93,21.92,17.6l-17.49,15.5c-3.99-5.16-8.86-9.3-14.61-12.4-5.76-3.1-12.92-4.65-21.48-4.65s-15.72,1.77-20.59,5.31c-4.87,3.55-7.31,8.71-7.31,15.5s1.99,11.33,5.98,14.5c3.99,3.18,10.18,5.57,18.6,7.2l13.73,2.88c15.5,2.95,26.83,7.97,33.99,15.06,7.16,7.09,10.74,16.83,10.74,29.23,0,7.23-1.26,13.8-3.76,19.71-2.51,5.9-6.16,10.96-10.96,15.17-4.8,4.21-10.67,7.45-17.6,9.74-6.94,2.29-14.83,3.43-23.69,3.43Z"/><path d="M1035.85,42.21V22.51h-19.04c-9.74,0-17.05,2.62-21.92,7.86-4.87,5.24-7.31,12.51-7.31,21.81v19.04h-78.94c-1.06-.05-2.12-.08-3.21-.08-7.97,0-15.24,1.41-21.81,4.21-6.57,2.81-12.14,6.83-16.72,12.07-4.58,5.24-8.12,11.59-10.63,19.04-2.51,7.45-3.76,15.76-3.76,24.91s1.25,17.46,3.76,24.91c2.51,7.45,6.05,13.8,10.63,19.04,4.57,5.24,10.15,9.26,16.72,12.07,6.57,2.8,13.84,4.21,21.81,4.21s15.24-1.41,21.81-4.21c6.57-2.8,12.14-6.83,16.72-12.07,4.57-5.24,8.12-11.59,10.63-19.04,2.51-7.45,3.76-15.76,3.76-24.91s-1.26-17.45-3.76-24.91c-1.98-5.86-4.6-11.03-7.85-15.53h40.84v100.93h24.13V90.92h24.13v-19.7h-24.13v-29.01h24.13Zm-102.96,98.84c0,10.13-2.51,17.72-7.53,22.79-5.02,5.07-11.66,7.6-19.93,7.6s-14.91-2.53-19.93-7.6c-5.02-5.06-7.53-12.66-7.53-22.79v-19.38c0-10.12,2.51-17.72,7.53-22.79,5.02-5.06,11.66-7.6,19.93-7.6s14.91,2.53,19.93,7.6c5.02,5.07,7.53,12.66,7.53,22.79v19.38Z"/><path d="M1081.4,191.85c-8.41,0-14.76-2.18-19.04-6.53-4.28-4.35-6.42-10.52-6.42-18.49V90.92h-7.64v-19.7h-.56c3.99,0,6.75-.89,8.3-2.66,1.55-1.77,2.32-4.65,2.32-8.64v-20.15h21.7v31.44h24.13v19.7h-24.13v81.22h22.36v19.71h-21.04Z"/></g><g><path class="cls-2" d="M30.16,114.76H6.23c-3.68,0-6.57,3.19-6.19,6.85,5.36,51.83,46.63,93.16,98.43,98.63,3.67,.39,6.86-2.5,6.86-6.19v-23.94c0-3.09-2.27-5.73-5.34-6.15-33.03-4.53-59.23-30.78-63.68-63.84-.41-3.07-3.05-5.36-6.15-5.36Z"/><path class="cls-4" d="M190.04,104.68h23.97c3.72,0,6.6-3.25,6.18-6.94C214.46,46.49,173.61,5.71,122.34,.08c-3.69-.41-6.93,2.47-6.93,6.18V30.22c0,3.08,2.26,5.71,5.31,6.14,32.6,4.64,58.46,30.45,63.18,63.02,.44,3.04,3.06,5.29,6.14,5.29Z"/><path class="cls-3" d="M115.41,190.05v23.96c0,3.7,3.21,6.59,6.88,6.19,51.6-5.65,92.65-46.89,98-98.58,.38-3.66-2.51-6.85-6.19-6.85h-23.93c-3.1,0-5.74,2.28-6.15,5.36-4.43,32.93-30.45,59.11-63.3,63.78-3.05,.43-5.31,3.06-5.31,6.14Z"/><path class="cls-1" d="M105.32,30.16V6.22c0-3.71-3.22-6.58-6.91-6.19C46.94,5.49,5.88,46.35,.13,97.73c-.41,3.7,2.46,6.95,6.18,6.95H30.28c3.08,0,5.7-2.25,6.14-5.29,4.74-32.7,30.78-58.58,63.56-63.08,3.07-.42,5.34-3.05,5.34-6.15Z"/></g></g></svg>